<svg width="5398" height="1379" viewBox="0 0 5398 1379" fill="none" xmlns="http://www.w3.org/2000/svg">
<rect width="1379" height="1379" rx="689.5" fill="white"/>
<path fill-rule="evenodd" clip-rule="evenodd" d="M1134 460L880.644 955H642.673L748.701 749.851H743.943C656.47 863.338 525.959 938.046 340 955V752.69C340 752.69 458.962 745.667 528.898 672.183H340V460.004H552.3V634.518L557.065 634.499L643.819 460.004H804.376V633.411L809.14 633.404L899.149 460H1134Z" fill="black"/>
<path d="M5185.76 949.04C5139.16 949.04 5098.37 938.498 5063.42 917.413C5028.46 896.328 5001.27 867.753 4981.85 831.686C4962.43 795.62 4952.72 755.67 4952.72 711.835C4952.72 666.336 4962.43 626.109 4981.85 591.152C5001.83 555.641 5028.74 527.62 5062.58 507.09C5096.99 486.56 5135.27 476.295 5177.44 476.295C5212.95 476.295 5244.03 482.121 5270.66 493.773C5297.85 505.425 5320.87 521.517 5339.74 542.047C5358.6 562.577 5373.03 586.158 5383.02 612.792C5393.01 638.871 5398 667.169 5398 697.686C5398 705.454 5397.45 713.5 5396.34 721.823C5395.78 730.146 5394.39 737.359 5392.17 743.463H5042.61V660.233H5330.58L5278.98 699.351C5283.98 673.827 5282.59 651.078 5274.82 631.102C5267.61 611.127 5255.4 595.314 5238.2 583.661C5221.55 572.009 5201.3 566.183 5177.44 566.183C5154.69 566.183 5134.44 572.009 5116.68 583.661C5098.93 594.759 5085.33 611.405 5075.9 633.599C5067.02 655.239 5063.69 681.595 5065.91 712.668C5063.69 740.411 5067.3 765.102 5076.73 786.742C5086.72 807.827 5101.15 824.196 5120.01 835.848C5139.43 847.5 5161.63 853.326 5186.6 853.326C5211.57 853.326 5232.65 848.055 5249.85 837.512C5267.61 826.97 5281.48 812.821 5291.47 795.065L5379.69 838.345C5370.81 859.984 5356.94 879.127 5338.08 895.773C5319.21 912.419 5296.74 925.459 5270.66 934.891C5245.13 944.324 5216.84 949.04 5185.76 949.04Z" fill="white"/>
<path d="M4837.7 944.047C4786.65 944.047 4746.98 930.176 4718.68 902.432C4690.93 874.134 4677.06 834.461 4677.06 783.414V583.662H4598.83V486.283H4607.15C4629.34 486.283 4646.55 480.457 4658.75 468.805C4670.96 457.153 4677.06 440.229 4677.06 418.035V383.078H4786.09V486.283H4890.13V583.662H4786.09V777.588C4786.09 792.569 4788.59 805.331 4793.58 815.873C4799.13 826.416 4807.46 834.461 4818.55 840.01C4830.21 845.559 4844.91 848.333 4862.67 848.333C4866.55 848.333 4870.99 848.055 4875.98 847.501C4881.53 846.946 4886.8 846.391 4891.8 845.836V939.053C4884.03 940.163 4875.15 941.273 4865.16 942.383C4855.17 943.492 4846.02 944.047 4837.7 944.047Z" fill="white"/>
<path d="M4293.94 949.04C4262.32 949.04 4234.85 943.769 4211.55 933.227C4188.24 922.684 4170.21 907.703 4157.45 888.283C4144.69 868.307 4138.3 845.281 4138.3 819.202C4138.3 794.233 4143.85 772.038 4154.95 752.618C4166.05 732.643 4183.25 715.997 4206.55 702.68C4229.86 689.363 4259.27 679.931 4294.78 674.382L4442.93 650.245V733.475L4315.59 755.115C4293.95 758.999 4277.85 765.935 4267.31 775.922C4256.77 785.91 4251.5 798.949 4251.5 815.04C4251.5 830.577 4257.32 843.061 4268.98 852.494C4281.18 861.372 4296.16 865.811 4313.92 865.811C4336.67 865.811 4356.65 861.094 4373.85 851.661C4391.6 841.674 4405.2 828.08 4414.63 810.879C4424.62 793.678 4429.61 774.813 4429.61 754.283V637.761C4429.61 618.341 4421.84 602.249 4406.31 589.488C4391.32 576.171 4371.35 569.512 4346.38 569.512C4323.07 569.512 4302.27 575.893 4283.96 588.655C4266.2 600.862 4253.16 617.231 4244.84 637.761L4155.78 594.481C4164.66 570.622 4178.53 550.092 4197.4 532.891C4216.82 515.136 4239.57 501.264 4265.65 491.276C4291.72 481.289 4320.02 476.295 4350.54 476.295C4387.72 476.295 4420.45 483.231 4448.75 497.102C4477.05 510.419 4498.97 529.285 4514.5 553.699C4530.59 577.558 4538.64 605.579 4538.64 637.761V939.053H4435.44V861.649L4458.74 859.984C4447.09 879.405 4433.22 895.773 4417.13 909.09C4401.03 921.852 4382.72 931.84 4362.19 939.053C4341.66 945.711 4318.91 949.04 4293.94 949.04Z" fill="white"/>
<path d="M3946.92 939.05V309H4055.95V939.05H3946.92Z" fill="white"/>
<path d="M3387.72 1105.51V486.283H3490.09V576.171L3480.1 553.699C3495.64 529.285 3516.72 510.419 3543.36 497.102C3569.99 483.231 3600.78 476.295 3635.74 476.295C3678.47 476.295 3717.03 486.837 3751.43 507.922C3785.83 529.007 3813.02 557.305 3833 592.817C3853.53 628.328 3863.79 668.278 3863.79 712.668C3863.79 756.502 3853.8 796.452 3833.83 832.519C3813.85 868.585 3786.66 897.16 3752.26 918.245C3717.86 938.775 3678.74 949.04 3634.91 949.04C3602.17 949.04 3571.93 942.659 3544.19 929.897C3517 916.581 3495.36 897.715 3479.27 873.301L3496.75 851.661V1105.51H3387.72ZM3622.42 849.165C3647.39 849.165 3669.59 843.339 3689.01 831.686C3708.43 820.034 3723.41 803.943 3733.95 783.413C3745.05 762.883 3750.6 739.301 3750.6 712.668C3750.6 686.034 3745.05 662.73 3733.95 642.755C3723.41 622.225 3708.43 606.133 3689.01 594.481C3669.59 582.274 3647.39 576.171 3622.42 576.171C3598.57 576.171 3576.92 581.997 3557.5 593.649C3538.64 605.301 3523.66 621.67 3512.56 642.755C3502.02 663.285 3496.75 686.589 3496.75 712.668C3496.75 739.301 3502.02 762.883 3512.56 783.413C3523.66 803.943 3538.64 820.034 3557.5 831.686C3576.92 843.339 3598.57 849.165 3622.42 849.165Z" fill="white"/>
<path d="M2618.82 939.053V486.283H2721.19V591.152L2709.54 573.674C2717.86 540.937 2734.5 516.523 2759.47 500.432C2784.44 484.34 2813.85 476.295 2847.7 476.295C2884.87 476.295 2917.61 486.005 2945.91 505.425C2974.21 524.846 2992.52 550.369 3000.84 581.997L2970.05 584.494C2983.92 548.427 3004.73 521.516 3032.47 503.761C3060.21 485.45 3092.12 476.295 3128.18 476.295C3160.36 476.295 3188.94 483.508 3213.91 497.935C3239.43 512.361 3259.41 532.614 3273.83 558.692C3288.26 584.216 3295.47 613.902 3295.47 647.748V939.053H3186.44V673.55C3186.44 653.574 3182.84 636.374 3175.62 621.947C3168.41 607.521 3158.42 596.423 3145.66 588.655C3132.9 580.332 3117.36 576.171 3099.05 576.171C3081.85 576.171 3066.59 580.332 3053.28 588.655C3039.96 596.423 3029.69 607.521 3022.48 621.947C3015.27 636.374 3011.66 653.574 3011.66 673.55V939.053H2902.63V673.55C2902.63 653.574 2899.02 636.374 2891.81 621.947C2884.6 607.521 2874.33 596.423 2861.01 588.655C2848.25 580.332 2832.99 576.171 2815.24 576.171C2798.04 576.171 2782.78 580.332 2769.46 588.655C2756.15 596.423 2745.88 607.521 2738.67 621.947C2731.45 636.374 2727.85 653.574 2727.85 673.55V939.053H2618.82Z" fill="white"/>
<path d="M2323.93 949.04C2277.32 949.04 2236.54 938.498 2201.58 917.413C2166.62 896.328 2139.43 867.753 2120.01 831.686C2100.59 795.62 2090.88 755.67 2090.88 711.835C2090.88 666.336 2100.59 626.109 2120.01 591.152C2139.99 555.641 2166.9 527.62 2200.75 507.09C2235.15 486.56 2273.43 476.295 2315.6 476.295C2351.12 476.295 2382.19 482.121 2408.82 493.773C2436.01 505.425 2459.04 521.517 2477.9 542.047C2496.77 562.577 2511.19 586.158 2521.18 612.792C2531.17 638.871 2536.16 667.169 2536.16 697.686C2536.16 705.454 2535.61 713.5 2534.5 721.823C2533.94 730.146 2532.56 737.359 2530.34 743.463H2180.77V660.233H2468.75L2417.14 699.351C2422.14 673.827 2420.75 651.078 2412.98 631.102C2405.77 611.127 2393.56 595.314 2376.36 583.661C2359.72 572.009 2339.46 566.183 2315.6 566.183C2292.85 566.183 2272.6 572.009 2254.85 583.661C2237.09 594.759 2223.5 611.405 2214.06 633.599C2205.19 655.239 2201.86 681.595 2204.08 712.668C2201.86 740.411 2205.46 765.102 2214.9 786.742C2224.88 807.827 2239.31 824.196 2258.17 835.848C2277.6 847.5 2299.79 853.326 2324.76 853.326C2349.73 853.326 2370.81 848.055 2388.01 837.512C2405.77 826.97 2419.64 812.821 2429.63 795.065L2517.85 838.345C2508.97 859.984 2495.1 879.127 2476.24 895.773C2457.37 912.419 2434.9 925.459 2408.82 934.891C2383.3 944.324 2355 949.04 2323.93 949.04Z" fill="white"/>
<path d="M1835.63 939.051V418.864H1675V318.988H2107.8V418.864H1949.66V939.051H1835.63Z" fill="white"/>
</svg>
