<svg width="60" height="18" viewBox="0 0 60 18" fill="none" xmlns="http://www.w3.org/2000/svg">
<g clip-path="url(#clip0_3593_37)">
<path d="M43.607 0.75429C42.6399 0.401187 41.1331 0.0263672 39.2589 0.0263672C34.4608 0.0263672 31.0748 2.36733 31.0498 5.72157C31.0198 8.18829 33.4588 9.57642 35.3005 10.4035C37.1922 11.2499 37.8244 11.782 37.8195 12.5437C37.8074 13.6973 36.3076 14.2196 34.9157 14.2196C33.0014 14.2196 31.9519 13.9609 30.3401 13.3128L29.7428 13.0443L29.0656 16.9088C30.2301 17.3804 32.3292 17.7843 34.5008 17.8157C39.6012 17.8157 42.9348 15.4917 42.9748 11.9174C43.0148 9.95126 41.7003 8.45914 38.924 7.23062C37.2397 6.43256 36.1901 5.89811 36.1901 5.08796C36.1901 4.37213 37.0873 3.60793 38.9615 3.60793C40.5733 3.58394 41.7003 3.91991 42.5974 4.26815L43.0473 4.46401L43.7245 0.730088L43.607 0.75429ZM56.0593 0.34316H52.3109C51.1439 0.34316 50.2718 0.650281 49.7595 1.7724L42.55 17.5739H47.6503L48.6699 14.9863L54.8923 14.9911C55.0447 15.5957 55.4921 17.5739 55.4921 17.5739H59.9877L56.0593 0.34316ZM24.1526 0.198069H29.0081L25.9719 17.4385H21.1139L24.1526 0.198069ZM11.8103 9.69976L12.3151 12.0939L17.0656 0.34317H22.2109L14.5616 17.5497H9.42877L5.23052 2.97675C5.14306 2.72766 5.0356 2.55838 4.78071 2.4036C3.3613 1.68536 1.77446 1.10011 0.0126953 0.693833L0.0751695 0.331085H7.89941C8.95897 0.369569 9.81361 0.693835 10.106 1.79177L11.8103 9.70702V9.69976ZM50.0643 11.4579L52.001 6.63571C51.976 6.68419 52.4009 5.63935 52.6458 4.99123L52.9781 6.47852L54.1002 11.4531L50.0643 11.4579Z" fill="black"/>
</g>
<defs>
<clipPath id="clip0_3593_37">
<rect width="60" height="17.8426" fill="white"/>
</clipPath>
</defs>
</svg>
